<svg width="36" height="37" viewBox="0 0 36 37" fill="none" xmlns="http://www.w3.org/2000/svg">
<path d="M5.81396 9.50581C5.81396 8.72428 6.08843 8.07952 6.63733 7.57155C7.18624 7.06356 7.89984 6.80957 8.77809 6.80957C9.64067 6.80957 10.3386 7.05964 10.8718 7.55983C11.4207 8.07563 11.6952 8.74772 11.6952 9.57615C11.6952 10.3264 11.4286 10.9516 10.8953 11.4518C10.3464 11.9676 9.62498 12.2255 8.73104 12.2255H8.70751C7.84493 12.2255 7.14704 11.9676 6.61381 11.4518C6.08057 10.936 5.81396 10.2873 5.81396 9.50581ZM6.11979 30.0207V14.359H11.3423V30.0207H6.11979ZM14.2358 30.0207H19.4583V21.2755C19.4583 20.7284 19.5211 20.3064 19.6465 20.0094C19.8661 19.478 20.1994 19.0286 20.6463 18.6613C21.0933 18.294 21.654 18.1103 22.3284 18.1103C24.0849 18.1103 24.9631 19.2904 24.9631 21.6506V30.0207H30.1856V21.041C30.1856 18.7277 29.6367 16.9732 28.5389 15.7775C27.4411 14.5818 25.9904 13.9839 24.1868 13.9839C22.1637 13.9839 20.5875 14.8514 19.4583 16.5864V16.6333H19.4348L19.4583 16.5864V14.359H14.2358C14.2672 14.8592 14.2829 16.4144 14.2829 19.0247C14.2829 21.635 14.2672 25.3003 14.2358 30.0207Z" fill="white"/>
</svg>
