<svg width="36" height="37" viewBox="0 0 36 37" fill="none" xmlns="http://www.w3.org/2000/svg">
<path d="M22.2791 8.09833V8.09375H23.4721L23.9081 8.18081C24.1987 8.23734 24.4625 8.31141 24.6996 8.40305C24.9367 8.4947 25.1661 8.60163 25.3879 8.72381C25.6097 8.846 25.8108 8.9705 25.9913 9.09727C26.1703 9.22252 26.3309 9.35541 26.4731 9.49592C26.6138 9.63797 26.8333 9.67463 27.1316 9.6059C27.4298 9.53716 27.751 9.44169 28.0952 9.31951C28.4393 9.19732 28.7797 9.05985 29.1161 8.9071C29.4526 8.75435 29.6576 8.65737 29.731 8.61613C29.8029 8.57338 29.8412 8.55046 29.8457 8.54739L29.8503 8.54052L29.8733 8.52907L29.8962 8.51761L29.9191 8.50615L29.9421 8.4947L29.9467 8.48782L29.9536 8.48324L29.9605 8.47866L29.965 8.47179L29.988 8.46491L30.0109 8.46033L30.0063 8.4947L29.9994 8.52907L29.988 8.56343L29.9765 8.5978L29.965 8.62071L29.9536 8.64362L29.9421 8.67799C29.9344 8.7009 29.9268 8.73144 29.9191 8.76963C29.9115 8.80783 29.8388 8.96055 29.7012 9.22786C29.5635 9.49517 29.3914 9.76628 29.185 10.0412C28.9785 10.3161 28.7934 10.5239 28.6298 10.6644C28.4646 10.8065 28.3552 10.9057 28.3017 10.9622C28.2481 11.0203 28.1831 11.0737 28.1066 11.1226L27.9919 11.1982L27.969 11.2097L27.946 11.2211L27.9415 11.228L27.9346 11.2326L27.9277 11.2372L27.9231 11.2441L27.9002 11.2555L27.8772 11.267L27.8726 11.2738L27.8657 11.2784L27.8589 11.283L27.8543 11.2899L27.8497 11.2968L27.8428 11.3013L27.8359 11.3059L27.8313 11.3128H27.946L28.5884 11.1753C29.0167 11.0837 29.4259 10.9729 29.8159 10.8431L30.4354 10.6369L30.5042 10.614L30.5386 10.6025L30.5615 10.5911L30.5845 10.5796L30.6074 10.5682L30.6304 10.5567L30.6763 10.5498L30.7221 10.5453V10.5911L30.7107 10.5957L30.6992 10.6025L30.6946 10.6094L30.6877 10.614L30.6808 10.6186L30.6763 10.6255L30.6717 10.6323L30.6648 10.6369L30.6579 10.6415L30.6533 10.6484L30.6488 10.6552L30.6418 10.6598L30.6304 10.6827L30.6189 10.7056L30.612 10.7102C30.609 10.7148 30.5119 10.8446 30.3206 11.0997C30.1295 11.3563 30.0262 11.4861 30.0109 11.4892C29.9956 11.4938 29.9742 11.5167 29.9467 11.5579C29.9207 11.6007 29.7585 11.771 29.4603 12.0689C29.162 12.3667 28.8699 12.6317 28.5839 12.8639C28.2963 13.0976 28.151 13.3847 28.148 13.7254C28.1434 14.0644 28.1258 14.4478 28.0952 14.8755C28.0646 15.3032 28.0072 15.7652 27.9231 16.2616C27.839 16.7581 27.709 17.3194 27.5331 17.9456C27.3572 18.5719 27.143 19.1828 26.8907 19.7785C26.6383 20.3742 26.3744 20.9088 26.0991 21.3823C25.8238 21.8558 25.5714 22.2568 25.342 22.5852C25.1126 22.9136 24.8793 23.2229 24.6422 23.5131C24.4052 23.8033 24.1054 24.1302 23.7429 24.4937C23.3789 24.8557 23.18 25.0543 23.1464 25.0894C23.1112 25.123 22.9613 25.2482 22.6967 25.4651C22.4336 25.6835 22.1506 25.9019 21.8478 26.1204C21.5465 26.3373 21.2696 26.5183 21.0172 26.6634C20.7649 26.8085 20.4605 26.9742 20.1041 27.1606C19.7493 27.3484 19.3653 27.5226 18.9524 27.6829C18.5394 27.8433 18.1035 27.9922 17.6446 28.1297C17.1858 28.2672 16.7422 28.3741 16.3139 28.4505C15.8857 28.5268 15.4 28.5918 14.857 28.6452L14.0426 28.7254V28.7369H12.5513V28.7254L12.3562 28.7139C12.2263 28.7063 12.1192 28.6987 12.035 28.691C11.9509 28.6834 11.6335 28.6414 11.0829 28.565C10.5323 28.4887 10.1002 28.4123 9.78663 28.3359C9.47309 28.2595 9.00656 28.1144 8.3871 27.9006C7.76764 27.6868 7.23766 27.4706 6.79715 27.2522C6.35818 27.0353 6.08286 26.8978 5.9712 26.8398C5.86107 26.7833 5.73718 26.713 5.59952 26.629L5.39304 26.503L5.38847 26.4961L5.38156 26.4915L5.37468 26.487L5.37009 26.4801L5.34715 26.4686L5.32421 26.4572L5.31964 26.4503L5.31273 26.4457L5.30585 26.4411L5.30126 26.4343L5.2967 26.4274L5.28979 26.4228H5.27832V26.377L5.30126 26.3816L5.32421 26.3884L5.42745 26.3999C5.49628 26.4075 5.68365 26.419 5.98955 26.4343C6.29548 26.4496 6.62049 26.4496 6.96463 26.4343C7.30878 26.419 7.66059 26.3846 8.02001 26.3312C8.37946 26.2777 8.80391 26.1861 9.29335 26.0562C9.78282 25.9264 10.2325 25.7721 10.6424 25.5934C11.0508 25.4132 11.3414 25.2788 11.5143 25.1902C11.6856 25.1031 11.9471 24.9412 12.2989 24.7045L12.8266 24.3493L12.8312 24.3425L12.8381 24.3379L12.845 24.3333L12.8495 24.3264L12.8541 24.3196L12.861 24.315L12.8679 24.3104L12.8725 24.3035L12.8954 24.2966L12.9184 24.2921L12.9229 24.2691L12.9298 24.2462L12.9367 24.2417L12.9413 24.2348L12.7577 24.2233C12.6354 24.2157 12.5168 24.208 12.4021 24.2004C12.2874 24.1928 12.1077 24.1584 11.863 24.0973C11.6183 24.0362 11.3544 23.9446 11.0714 23.8224C10.7885 23.7002 10.5132 23.5551 10.2455 23.3871C9.97783 23.2191 9.78433 23.0793 9.66503 22.9678C9.54726 22.8578 9.3943 22.702 9.20617 22.5004C9.01957 22.2973 8.85743 22.0887 8.71978 21.8749C8.58212 21.6611 8.45058 21.4144 8.32518 21.1349L8.13473 20.7179L8.12326 20.6835L8.11179 20.6492L8.1049 20.6262L8.10031 20.6033L8.13473 20.6079L8.16914 20.6148L8.42152 20.6492C8.58978 20.6721 8.85363 20.6797 9.21305 20.6721C9.5725 20.6644 9.82104 20.6492 9.9587 20.6262C10.0964 20.6033 10.1805 20.5881 10.2111 20.5804L10.257 20.569L10.3143 20.5575L10.3717 20.5461L10.3763 20.5392L10.3831 20.5346L10.3901 20.53L10.3946 20.5231L10.3487 20.5117L10.3028 20.5002L10.257 20.4888L10.2111 20.4773L10.1652 20.4659C10.1346 20.4582 10.0811 20.443 10.0046 20.42C9.92812 20.3971 9.72163 20.3131 9.38512 20.168C9.04864 20.0229 8.78096 19.8816 8.58212 19.7442C8.38278 19.6063 8.19271 19.4555 8.01313 19.2928C7.83417 19.1278 7.63764 18.9155 7.42349 18.6559C7.20937 18.3962 7.01818 18.0945 6.84992 17.7509C6.68168 17.4072 6.55549 17.0788 6.47136 16.7657C6.38756 16.4544 6.33228 16.1362 6.30619 15.8149L6.26487 15.3337L6.28781 15.3383L6.31076 15.3452L6.3337 15.3566L6.35664 15.3681L6.37959 15.3796L6.40253 15.391L6.75815 15.5514C6.99524 15.6583 7.28967 15.75 7.64145 15.8263C7.99326 15.9027 8.20356 15.9447 8.27239 15.9523L8.37563 15.9638H8.58212L8.57755 15.9569L8.57065 15.9523L8.56376 15.9478L8.55917 15.9409L8.55461 15.934L8.5477 15.9294L8.54082 15.9248L8.53623 15.918L8.51329 15.9065L8.49035 15.8951L8.48578 15.8882L8.47887 15.8836L8.47199 15.879L8.4674 15.8721L8.44446 15.8607L8.42152 15.8492L8.41695 15.8424C8.41236 15.8393 8.34658 15.7904 8.21962 15.6957C8.09419 15.5995 7.96266 15.475 7.825 15.3223C7.68734 15.1695 7.54968 15.0091 7.41202 14.8411C7.27411 14.6727 7.15128 14.4926 7.04493 14.3027C6.93788 14.1118 6.82468 13.8689 6.70538 13.5741C6.58761 13.2809 6.49813 12.9853 6.43694 12.6875C6.37578 12.3896 6.34136 12.0956 6.3337 11.8054C6.32606 11.5152 6.3337 11.267 6.35664 11.0608C6.37959 10.8546 6.42547 10.6216 6.4943 10.362C6.56313 10.1023 6.66257 9.82738 6.79256 9.53716L6.98758 9.10185L6.99905 9.06748L7.01052 9.03311L7.01743 9.02853L7.02199 9.02166L7.02658 9.01479L7.03346 9.0102L7.04037 9.01479L7.04493 9.02166L7.04952 9.02853L7.05641 9.03311L7.06331 9.0377L7.06788 9.04457L7.07247 9.05144L7.07935 9.05603L7.09082 9.07894L7.10229 9.10185L7.1092 9.10643L7.11376 9.1133L7.42349 9.45697C7.62998 9.68609 7.87471 9.94194 8.15767 10.2245C8.44065 10.5071 8.59742 10.6537 8.628 10.6644C8.65861 10.6766 8.69683 10.7117 8.74272 10.7698C8.7886 10.8263 8.94157 10.9615 9.20158 11.1753C9.46162 11.3892 9.80193 11.6374 10.2225 11.9199C10.6432 12.2025 11.1097 12.4813 11.6221 12.7562C12.1345 13.0311 12.6851 13.2793 13.274 13.5008C13.8628 13.7223 14.2758 13.8674 14.5129 13.9361C14.75 14.0049 15.1553 14.0927 15.7289 14.1996C16.3024 14.3065 16.7346 14.3753 17.0252 14.4058C17.3158 14.4364 17.5146 14.4539 17.6217 14.4585L17.7823 14.4631L17.7777 14.4287L17.7708 14.3944L17.7249 14.108C17.6943 13.9171 17.679 13.6497 17.679 13.3061C17.679 12.9624 17.7058 12.6455 17.7593 12.3553C17.8129 12.065 17.8932 11.771 18.0002 11.4732C18.1073 11.1753 18.2121 10.9363 18.3146 10.756C18.4186 10.5773 18.5547 10.3734 18.7229 10.1443C18.8912 9.9152 19.1092 9.67846 19.3768 9.43406C19.6445 9.18967 19.9504 8.97201 20.2945 8.78109C20.6387 8.59017 20.9561 8.44505 21.2467 8.34577C21.5373 8.2465 21.782 8.18157 21.9809 8.15103C22.1797 8.12049 22.2791 8.10291 22.2791 8.09833Z" fill="white"/>
</svg>
